<svg width="372" height="193" viewBox="0 0 372 193" fill="none" xmlns="http://www.w3.org/2000/svg">
<path d="M63.3616 76.2901C62.0537 77.1621 60.2734 78.143 58.0209 79.2329C55.7684 80.3229 53.1162 81.2312 50.0643 81.9578C47.0852 82.6844 43.8153 83.0477 40.2549 83.0477C34.1512 82.9751 28.6288 81.8851 23.6878 79.7779C18.8194 77.6707 14.6776 74.8005 11.2625 71.1674C7.84731 67.5342 5.19512 63.3561 3.30589 58.6331C1.48932 53.8373 0.58104 48.7509 0.58104 43.3739C0.58104 37.4882 1.52565 32.0749 3.41488 27.1338C5.37678 22.1201 8.10163 17.7966 11.5894 14.1635C15.0772 10.4577 19.1827 7.58752 23.9058 5.55297C28.7015 3.51841 33.9332 2.50114 39.6009 2.50114C44.324 2.50114 48.6111 3.1551 52.4622 4.46302C56.3133 5.69829 59.6195 7.18788 62.3807 8.93178L58.1299 18.7412C55.95 17.288 53.2978 15.9074 50.1733 14.5995C47.1215 13.2915 43.7064 12.6376 39.9279 12.6376C36.0768 12.6376 32.4436 13.4005 29.0285 14.9265C25.6133 16.4524 22.5978 18.5959 19.982 21.3571C17.3661 24.1183 15.2952 27.3518 13.7693 31.0576C12.3161 34.6907 11.5894 38.6145 11.5894 42.8289C11.5894 47.116 12.2434 51.1125 13.5513 54.8183C14.9319 58.4514 16.8575 61.6122 19.328 64.3008C21.8712 66.9893 24.923 69.0965 28.4835 70.6224C32.044 72.1483 36.0404 72.9113 40.4729 72.9113C44.4693 72.9113 48.0298 72.2937 51.1543 71.0584C54.2788 69.8231 56.8583 68.4425 58.8929 66.9166L63.3616 76.2901ZM73.3167 82.1758L107.759 0.103266H108.413L142.746 82.1758H130.648L104.925 16.6704L112.446 11.7656L83.6711 82.1758H73.3167ZM93.4806 52.3114H122.8L126.288 61.4669H90.4287L93.4806 52.3114ZM165.367 54.2733C165.367 57.8338 166.203 61.0309 167.874 63.8648C169.618 66.626 171.907 68.8058 174.741 70.4044C177.575 72.003 180.772 72.8023 184.332 72.8023C188.038 72.8023 191.344 72.003 194.251 70.4044C197.157 68.8058 199.446 66.626 201.117 63.8648C202.789 61.0309 203.624 57.8338 203.624 54.2733V3.37308H213.979V54.6003C213.979 60.3406 212.634 65.3544 209.946 69.6415C207.33 73.9286 203.77 77.2347 199.264 79.5599C194.832 81.8851 189.855 83.0477 184.332 83.0477C178.81 83.0477 173.832 81.8851 169.4 79.5599C164.968 77.2347 161.443 73.9286 158.828 69.6415C156.212 65.3544 154.904 60.3406 154.904 54.6003V3.37308H165.367V54.2733ZM276.372 17.4333C273.683 16.0527 270.74 14.8538 267.543 13.8365C264.346 12.8192 261.222 12.3106 258.17 12.3106C253.955 12.3106 250.576 13.2915 248.033 15.2534C245.563 17.2153 244.327 19.8312 244.327 23.101C244.327 25.5715 245.127 27.6788 246.725 29.4227C248.324 31.0939 250.431 32.5472 253.047 33.7824C255.663 35.0177 258.388 36.1803 261.222 37.2702C263.692 38.2148 266.126 39.2685 268.524 40.4311C270.922 41.5937 273.066 43.0469 274.955 44.7908C276.917 46.5347 278.443 48.6783 279.533 51.2215C280.695 53.7647 281.276 56.9255 281.276 60.704C281.276 64.8457 280.223 68.6242 278.116 72.0393C276.081 75.4545 273.138 78.143 269.287 80.1049C265.436 82.0668 260.858 83.0477 255.554 83.0477C252.066 83.0477 248.724 82.6481 245.526 81.8488C242.402 81.0495 239.495 80.0322 236.807 78.797C234.118 77.489 231.721 76.1448 229.613 74.7642L234.3 66.4806C236.044 67.7159 238.042 68.9148 240.295 70.0774C242.547 71.1674 244.909 72.0757 247.379 72.8023C249.85 73.4563 252.248 73.7832 254.573 73.7832C257.043 73.7832 259.478 73.3473 261.876 72.4753C264.346 71.5307 266.381 70.1138 267.979 68.2245C269.578 66.3353 270.377 63.8284 270.377 60.704C270.377 58.0154 269.65 55.7992 268.197 54.0553C266.817 52.2387 264.964 50.7128 262.638 49.4776C260.313 48.1696 257.843 47.007 255.227 45.9898C252.756 45.0451 250.249 44.0279 247.706 42.9379C245.163 41.7753 242.802 40.3947 240.622 38.7961C238.442 37.1249 236.698 35.0904 235.39 32.6925C234.082 30.2946 233.428 27.3881 233.428 23.973C233.428 19.8312 234.409 16.2344 236.371 13.1826C238.405 10.0581 241.167 7.62385 244.654 5.87995C248.142 4.06338 252.139 3.08243 256.644 2.93711C261.73 2.93711 266.199 3.55474 270.05 4.79001C273.974 6.02527 277.425 7.55119 280.405 9.36776L276.372 17.4333ZM291.198 82.1758L325.64 0.103266H326.294L360.628 82.1758H348.529L322.807 16.6704L330.327 11.7656L301.553 82.1758H291.198ZM311.362 52.3114H340.682L344.169 61.4669H308.31L311.362 52.3114ZM6.46672 113.79H54.2061V118.913H11.8074V149.649H49.9553V154.772H11.8074V186.053H55.732V191.176H6.46672V113.79ZM76.0781 113.79H119.458V118.913H81.4189V150.848H115.098V155.862H81.4189V191.176H76.0781V113.79ZM139.09 113.79H186.83V118.913H144.431V149.649H182.579V154.772H144.431V186.053H188.356V191.176H139.09V113.79ZM208.702 113.79H214.042V191.176H208.702V113.79ZM232.505 113.79H283.187V118.913H260.408V191.176H255.067V118.913H232.505V113.79ZM292.78 152.592C292.78 147.142 293.798 142.056 295.832 137.333C297.867 132.537 300.701 128.323 304.334 124.689C307.967 120.984 312.145 118.113 316.868 116.079C321.664 113.972 326.787 112.918 332.236 112.918C337.686 112.918 342.809 113.972 347.604 116.079C352.4 118.113 356.615 120.984 360.248 124.689C363.881 128.323 366.715 132.537 368.749 137.333C370.856 142.056 371.91 147.142 371.91 152.592C371.91 158.042 370.856 163.164 368.749 167.96C366.715 172.683 363.881 176.861 360.248 180.494C356.615 184.127 352.4 186.961 347.604 188.996C342.809 191.03 337.686 192.048 332.236 192.048C326.787 192.048 321.664 191.067 316.868 189.105C312.145 187.143 307.967 184.382 304.334 180.821C300.701 177.261 297.867 173.083 295.832 168.287C293.798 163.491 292.78 158.26 292.78 152.592ZM298.23 152.701C298.23 157.424 299.102 161.856 300.846 165.998C302.59 170.14 305.024 173.773 308.149 176.898C311.273 180.022 314.87 182.493 318.939 184.309C323.081 186.053 327.477 186.925 332.127 186.925C336.923 186.925 341.392 186.053 345.534 184.309C349.675 182.493 353.308 180.022 356.433 176.898C359.557 173.773 361.992 170.14 363.736 165.998C365.552 161.856 366.46 157.388 366.46 152.592C366.46 147.869 365.552 143.436 363.736 139.295C361.992 135.08 359.557 131.411 356.433 128.286C353.308 125.089 349.675 122.582 345.534 120.766C341.392 118.949 336.959 118.041 332.236 118.041C327.441 118.041 322.972 118.985 318.83 120.875C314.688 122.691 311.055 125.198 307.931 128.395C304.879 131.592 302.481 135.298 300.737 139.513C299.066 143.654 298.23 148.05 298.23 152.701Z" fill="#F2EDE7"/>
</svg>
